<svg xmlns="http://www.w3.org/2000/svg" version="1.0" viewBox="0 0 512 512"><defs/><path d="M124.7 38.7c-.4.3-.7 25.3-.7 55.5V149h15.2l-.3-45.3-.4-45.3 17.5 45.1 17.5 45 11.3.3 11.2.3V38h-15.2l.3 45.4c.2 25 .3 45.4.3 45.3-.1-.2-32.6-82.9-35.1-89.2-.4-1.2-2.7-1.5-10.7-1.5-5.7 0-10.6.3-10.9.7zM249.3 63c-20.3 4.1-33 26.8-29.3 52.6 2.5 17.3 11.6 29.4 25.2 33.5 5.6 1.7 8.8 2.1 16.7 1.7 9.2-.3 10.4-.6 18.5-4.6 4.7-2.4 8.6-4.8 8.6-5.3 0-.9-3.3-5.9-6.1-9.2-.3-.5-3.5.6-7 2.4-9.1 4.6-18.5 5.2-26.1 1.6-8-3.6-11.8-9-13.2-19l-.7-4.7H293v-6.8c-.1-13.9-3.8-24.7-11.3-32.9-7.8-8.5-19.4-11.8-32.4-9.3zm18.5 15.3c4.7 3 8 9.3 8.9 16.6l.6 5.1h-41.5l.7-3.3c2.2-10.8 6-16.6 12.9-19.9 5.6-2.6 13.2-2 18.4 1.5zM306 64.5c0 .8 13.9 79.5 14.5 82.2.5 2.2 1 2.3 11 2.3 5.8 0 10.5-.3 10.5-.7 0-1.2 10.1-56.8 10.4-57 .1-.2 2.4 12.8 5.1 28.7l4.8 29H383.6l6.8-40.3c3.7-22.1 7-41.2 7.3-42.5.5-2.3.4-2.3-7.3-2l-7.9.3-4.7 35c-2.5 19.2-4.7 35.2-4.8 35.5-.1.3-2.7-13-5.8-29.5l-5.7-30-8.7-.3c-7.6-.2-8.7-.1-9.2 1.5-.2 1-2.6 12.6-5.1 25.8-2.6 13.2-5.1 26.2-5.7 29-1.1 4.7-1.4 3.2-5.9-30.5-2.7-19.5-4.8-35.8-4.9-36.3 0-.8-16-1-16-.2zM67 198.7c0 .5 8.3 16.1 18.5 34.7l18.5 34V309h17v-43l18-33c9.9-18.1 18-33.4 18-34 0-1.5-15.5-1.3-16.8.2-.6.7-7 12.8-14.4 26.9l-13.4 25.6-13.9-26.8L84.6 198h-8.8c-4.8 0-8.8.3-8.8.7zM201.2 223.1c-9.7 1.9-19.6 9.8-24.5 19.6-3.6 7.1-5.1 14.7-5.1 24.8.1 17.1 6.5 31.1 17.5 38 9 5.8 25.6 7.3 37.2 3.4 6.4-2.1 14.7-6.8 14.7-8.2 0-.7-3.5-5.9-6.1-9-.3-.5-3.5.6-7 2.4-8.9 4.6-18.4 5.2-26.1 1.6-6.8-3-10.6-7.8-12.4-15.5-.8-3.1-1.4-6.3-1.4-7 0-.9 6.4-1.2 28.5-1.2H245v-6.8c-.1-14-3.9-25.3-11.4-33-8.1-8.5-19.4-11.7-32.4-9.1zm18.6 15.2c4.7 3 8 9.3 8.9 16.6l.6 5.1h-41.5l.7-3.3c2.2-10.8 6-16.6 12.9-19.9 5.6-2.6 13.2-2 18.4 1.5zM292.5 222.6c-5 .9-14.8 3.2-17.7 4.3l-2.7 1 2 5.9 2 5.8 6.7-1.7c3.7-1 10.5-1.8 15.2-1.8 13.6-.1 18.7 3.7 19.7 14.6l.6 6-12.9.6c-20.2.8-32.4 5.9-37 15.4-2.5 5.3-3 15.9-1 22s8.5 12.6 14.5 14.8c10.3 3.6 25.8 1.1 34.2-5.6 4.3-3.4 4.3-3.4 6.9 1.3 1.2 2 8.8 5.8 11.7 5.8 1.7 0 2.5-1.1 3.8-5l1.7-5-3.1-2.9-3.1-2.9v-24.4c0-19.3-.3-25.6-1.6-29.7-2.1-7.2-8-13.4-15-16.1-5.5-2-19-3.3-24.9-2.4zm25.5 55.3c0 9.2-.2 10.2-2.5 12.9-6.4 7.6-19.7 10.5-26.6 5.9-4.3-2.9-5.9-6-5.9-12 0-5.7 1.9-9.8 5.9-12.6 4-2.9 9-3.9 19.9-4l9.2-.1v9.9zM416.7 223.4c-6.8 1.8-12.5 6.2-17.2 13l-4 5.8-1.2-7.9c-.6-4.3-1.2-8.4-1.2-9.1-.1-.9-3.3-1.2-12.6-1.2H368v12h12v61h-12v12h46.1l-.3-5.8-.3-5.7-8.2-.3-8.3-.3v-17.7c0-17.5 0-17.8 2.9-23.8 3.2-6.8 9-13.8 13.1-15.9 1.4-.7 4.2-1.6 6.3-2l3.7-.7V255.1l6.3-.3 6.2-.3.6-6c.4-3.3 1-10.1 1.3-15.2l.7-9.1-5.1-1.1c-6.4-1.4-10.2-1.3-16.3.3zM175.4 359.4c-.3.7-.4 3.8-.2 6.7l.3 5.4 12.3.3 12.2.3v83.8l-12.2.3-12.3.3-.3 6.2-.3 6.3H241v-13h-25v-83.9l12.3-.3 12.2-.3v-13l-32.3-.3c-26.7-.2-32.3 0-32.8 1.2zM305.7 383c-4.8 1.3-12.6 5.2-16.4 8.4l-3.1 2.6-.6-2.3c-.3-1.2-.6-3.4-.6-5 0-2.7 0-2.7-7-2.7h-7v85h16v-61l4.1-4.5c7.1-7.7 16.9-10.6 23.9-7 5.4 2.8 5.5 3.3 5.8 39.2l.3 33.3H337v-33.8c0-19.5-.4-35.2-1-37.3-1.5-5.4-5.1-10.1-9.6-12.6-4.6-2.5-15-3.7-20.7-2.3z"/></svg>